<svg id="Layer_1" data-name="Layer 1" xmlns="http://www.w3.org/2000/svg" viewBox="0 0 512 429.13"><defs><style>.cls-1{fill:#ff405f;}.cls-2{fill:#fb788a;}.cls-3{fill:#fbba00;}.cls-4{fill:#fbdb80;}.cls-5{fill:#f28e00;}</style></defs><title>about-1</title><polygon class="cls-1" points="512 389.35 256 429.13 0 389.35 0 39.78 256 79.56 512 39.78 512 389.35"/><polygon class="cls-2" points="0 39.78 0 389.35 256 429.13 256 79.56 0 39.78"/><polygon class="cls-3" points="256 31.83 51.14 0 51.14 343.78 256 375.61 460.86 343.78 460.86 0 256 31.83"/><polygon class="cls-4" points="51.14 0 51.14 343.78 256 375.61 256 31.83 51.14 0"/><polygon class="cls-3" points="97.36 165.97 209.78 183.52 209.78 151.8 97.36 134.25 97.36 165.97"/><polygon class="cls-3" points="97.36 76.41 97.36 108.14 209.78 125.68 209.78 93.96 97.36 76.41"/><polygon class="cls-3" points="97.36 223.81 209.78 241.36 209.78 209.64 97.36 192.09 97.36 223.81"/><polygon class="cls-3" points="97.36 281.65 209.78 299.2 209.78 267.48 97.36 249.93 97.36 281.65"/><polygon class="cls-5" points="302.22 183.52 414.64 165.97 414.64 134.25 302.22 151.8 302.22 183.52"/><polygon class="cls-5" points="302.22 241.36 414.64 223.81 414.64 192.09 302.22 209.64 302.22 241.36"/><polygon class="cls-5" points="302.22 93.96 302.22 125.68 414.64 108.14 414.64 76.41 302.22 93.96"/><polygon class="cls-5" points="302.22 299.2 414.64 281.65 414.64 249.93 302.22 267.48 302.22 299.2"/></svg>