<svg id="Layer_1" data-name="Layer 1" xmlns="http://www.w3.org/2000/svg" viewBox="0 0 512 496"><defs><style>.cls-1{fill:#ff405f;}.cls-2{fill:#0094e2;}.cls-3{fill:#e0e0e0;}.cls-4{fill:#f1f1f1;}</style></defs><title>about-2</title><path class="cls-1" d="M473.8,8H28.1a28.05,28.05,0,1,0,0,56.1H473.8L512,36Z" transform="translate(0 -8)"/><path class="cls-1" d="M256,8H28.1a28.05,28.05,0,1,0,0,56.1H256Z" transform="translate(0 -8)"/><path class="cls-2" d="M512,469a35,35,0,0,1-35,35H35A35,35,0,0,1,0,469V147a35,35,0,0,1,35-35H477a35,35,0,0,1,35,35Z" transform="translate(0 -8)"/><path class="cls-2" d="M256,112H35A35,35,0,0,0,0,147V469a35,35,0,0,0,35,35H256Z" transform="translate(0 -8)"/><rect class="cls-3" x="115" y="169" width="332" height="262"/><rect class="cls-4" x="115" y="169" width="141" height="262"/><circle class="cls-4" cx="57.5" cy="300" r="22.2"/><rect class="cls-4" x="35.3" y="222.6" width="44.3" height="31.3"/><rect class="cls-4" x="35.3" y="172.6" width="44.3" height="31.3"/><rect class="cls-4" x="35.3" y="396.1" width="44.3" height="31.3"/><rect class="cls-4" x="35.3" y="346.1" width="44.3" height="31.3"/></svg>