<svg id="Layer_1" data-name="Layer 1" xmlns="http://www.w3.org/2000/svg" viewBox="0 0 512 299.2"><defs><style>.cls-1{fill:#68edff;}.cls-2{fill:#00a3ff;}.cls-3{fill:#ffdc3e;}.cls-4{fill:#ffae23;}.cls-5{fill:#2c3c7e;}.cls-6{fill:#17ceff;}</style></defs><title>about-4</title><path class="cls-1" d="M497,421.9H319a15,15,0,0,1-15-15v-178a15,15,0,0,1,15-15h86.1a15,15,0,0,1,10.6,4.4l91.9,91.9a15,15,0,0,1,4.4,10.6v86.1A15,15,0,0,1,497,421.9Z" transform="translate(0 -155.2)"/><path class="cls-2" d="M304,320.8v86.1a15,15,0,0,0,15,15H497a15,15,0,0,0,15-15V320.8H304Z" transform="translate(0 -155.2)"/><path class="cls-3" d="M167,155.6l159.8-.4a.37.37,0,0,1,.3.1,15,15,0,0,1,6.9,12.6V421.8H15.6A15.62,15.62,0,0,1,0,406.2V168a14.89,14.89,0,0,1,6.9-12.6.37.37,0,0,1,.3-.1l159.8.3c.1,0-7.9.3-7.8.2" transform="translate(0 -155.2)"/><path class="cls-4" d="M167,155.6V421.9H334V168a15,15,0,0,0-7-12.7" transform="translate(0 -155.2)"/><path class="cls-5" d="M408,454.4a47.5,47.5,0,1,1,47.5-47.5A47.54,47.54,0,0,1,408,454.4Z" transform="translate(0 -155.2)"/><path class="cls-5" d="M154.5,454.4A47.5,47.5,0,1,1,202,406.9,47.54,47.54,0,0,1,154.5,454.4Z" transform="translate(0 -155.2)"/><path class="cls-6" d="M202.5,325.7h-71a15,15,0,0,1-15-15v-71a15,15,0,0,1,15-15h71a15,15,0,0,1,15,15v71A15,15,0,0,1,202.5,325.7Z" transform="translate(0 -155.2)"/><path class="cls-2" d="M202.5,224.7H167v101h35.5a15,15,0,0,0,15-15v-71A15,15,0,0,0,202.5,224.7Z" transform="translate(0 -155.2)"/></svg>