<svg id="Capa_1" enable-background="new 0 0 497 497" height="512" viewBox="0 0 497 497" width="512" xmlns="http://www.w3.org/2000/svg"><g><ellipse cx="248.5" cy="455.719" fill="#f8ea69" rx="134.393" ry="41.281"/><path d="m154.108 455.719c0-20.711 49.656-37.858 114.393-40.825-6.526-.299-13.203-.456-20-.456-74.223 0-134.393 18.482-134.393 41.281s60.169 41.281 134.392 41.281c6.797 0 13.474-.156 20-.456-64.737-2.966-114.392-20.114-114.392-40.825z" fill="#f8ad3e"/><path d="m248.5 0c-89.169 0-161.455 72.286-161.455 161.455 0 128.703 118.493 256.535 152.457 290.532 4.972 4.976 13.025 4.976 17.996 0 33.964-33.997 152.457-161.829 152.457-290.532 0-89.169-72.286-161.455-161.455-161.455zm0 254.19c-51.216 0-92.735-41.519-92.735-92.735s41.519-92.735 92.735-92.735 92.735 41.519 92.735 92.735-41.519 92.735-92.735 92.735z" fill="#bd9cde"/><path d="m117.045 161.455c0-84.11 64.32-153.187 146.455-160.755-4.94-.455-9.941-.7-15-.7-89.169 0-161.455 72.286-161.455 161.455 0 128.703 118.493 256.535 152.457 290.532 4.972 4.977 13.025 4.977 17.996 0 1.775-1.777 3.794-3.825 6.002-6.101-40.038-41.277-146.455-162.455-146.455-284.431z" fill="#996acc"/><g><g><path d="m198.949 311.654c-4.143 0-7.5-3.358-7.5-7.5 0-3.74-3.043-6.782-6.782-6.782s-6.782 3.042-6.782 6.782c0 4.142-3.357 7.5-7.5 7.5s-7.5-3.358-7.5-7.5c0-12.011 9.771-21.782 21.782-21.782s21.782 9.771 21.782 21.782c0 4.143-3.358 7.5-7.5 7.5z" fill="#423e4f"/></g><g><path d="m326.616 311.654c-4.143 0-7.5-3.358-7.5-7.5 0-3.74-3.043-6.782-6.782-6.782s-6.782 3.042-6.782 6.782c0 4.142-3.357 7.5-7.5 7.5s-7.5-3.358-7.5-7.5c0-12.011 9.771-21.782 21.782-21.782s21.782 9.771 21.782 21.782c0 4.143-3.358 7.5-7.5 7.5z" fill="#423e4f"/></g><g><path d="m248.501 335.249c-7.975 0-15.558-3.453-20.805-9.474-2.722-3.123-2.396-7.86.727-10.582 3.122-2.721 7.859-2.396 10.582.727 2.397 2.751 5.859 4.329 9.496 4.329s7.098-1.578 9.495-4.329c2.722-3.123 7.457-3.448 10.582-.727 3.122 2.721 3.448 7.459.727 10.582-5.248 6.021-12.831 9.474-20.804 9.474z" fill="#423e4f"/></g></g></g></svg>